<svg width="40" height="40" viewBox="0 0 40 40" fill="none" xmlns="http://www.w3.org/2000/svg">
    <path d="M14.4644 17.5801H0C0.0990712 18.6665 0.297214 19.6542 0.594427 20.6418H9.21362L3.66563 26.1727C4.35913 26.9628 5.05263 27.6542 5.8452 28.3456L11.3932 22.8147V31.4073C12.3839 31.7036 13.4737 31.9011 14.4644 31.9999V17.5801Z" fill="#0450F2"/>
    <path d="M17.5356 17.5801H32C31.8415 19.2443 31.5377 20.4463 31.4056 20.8394C30.4149 24.1974 28.2353 27.0616 25.4613 29.1357V24.9875C26.6502 23.7036 27.5418 22.3208 28.1362 20.7406H20.6068V21.9258V31.4073C19.6161 31.7036 18.6254 31.9011 17.5356 31.9999V17.5801Z" fill="#0450F2"/>
    <path d="M16.0495 0C7.62848 0 0.693498 6.41979 0 14.6174H1.58514H3.07121H10.8978L12.582 11.5556H3.86378C4.16099 10.7655 4.4582 10.0741 4.85449 9.38277H13.87L15.5542 6.32102H7.43034C9.70898 4.3457 12.6811 3.06174 16.0495 3.06174C19.418 3.06174 22.3901 4.24694 24.6687 6.32102H16.5449L18.2291 9.38277H27.2446C27.6409 10.0741 28.0372 10.7655 28.2353 11.5556H19.418L21.1022 14.6174H28.9288H30.3158H32C31.3065 6.41979 24.3715 0 16.0495 0Z" fill="#0450F2"/>
</svg>